<svg width="26" height="25" viewBox="0 0 26 25" fill="none" xmlns="http://www.w3.org/2000/svg">
<path d="M18.2682 2.15159C19.692 2.15569 21.0563 2.70216 22.0631 3.67167C23.0699 4.64118 23.6374 5.95493 23.6416 7.32602V17.6738C23.6374 19.0448 23.0699 20.3586 22.0631 21.3281C21.0563 22.2976 19.692 22.8441 18.2682 22.8482H7.52247C6.09866 22.8441 4.73437 22.2976 3.72757 21.3281C2.72078 20.3586 2.15328 19.0448 2.14903 17.6738V7.32602C2.15328 5.95493 2.72078 4.64118 3.72757 3.67167C4.73437 2.70216 6.09866 2.15569 7.52247 2.15159H18.2682ZM18.2682 0.0821533H7.52247C3.38503 0.0821533 0 3.34181 0 7.32602V17.6738C0 21.658 3.38503 24.9176 7.52247 24.9176H18.2682C22.4057 24.9176 25.7907 21.658 25.7907 17.6738V7.32602C25.7907 3.34181 22.4057 0.0821533 18.2682 0.0821533Z" fill="#2E4049"/>
<path d="M19.8817 7.32624C19.5629 7.32624 19.2512 7.2352 18.9861 7.06464C18.7211 6.89408 18.5145 6.65166 18.3925 6.36803C18.2705 6.0844 18.2385 5.7723 18.3007 5.4712C18.3629 5.1701 18.5164 4.89352 18.7419 4.67644C18.9673 4.45935 19.2545 4.31152 19.5672 4.25163C19.8799 4.19174 20.204 4.22247 20.4985 4.33996C20.7931 4.45744 21.0448 4.65639 21.2219 4.91165C21.3991 5.16691 21.4936 5.46702 21.4936 5.77402C21.494 5.97798 21.4527 6.18002 21.3718 6.36855C21.291 6.55707 21.1723 6.72836 21.0225 6.87258C20.8727 7.0168 20.6948 7.13112 20.4991 7.20897C20.3033 7.28682 20.0935 7.32667 19.8817 7.32624ZM12.8969 8.36068C13.7471 8.36068 14.5782 8.60345 15.2851 9.0583C15.992 9.51314 16.543 10.1596 16.8683 10.916C17.1937 11.6724 17.2788 12.5047 17.1129 13.3077C16.9471 14.1106 16.5377 14.8482 15.9365 15.4271C15.3353 16.006 14.5694 16.4003 13.7355 16.56C12.9017 16.7197 12.0373 16.6377 11.2519 16.3244C10.4664 16.0111 9.79504 15.4806 9.3227 14.7999C8.85036 14.1191 8.59825 13.3188 8.59825 12.5001C8.59947 11.4026 9.05275 10.3504 9.85864 9.57439C10.6645 8.79835 11.7572 8.36185 12.8969 8.36068ZM12.8969 6.29124C11.6217 6.29124 10.3751 6.65538 9.31476 7.33762C8.25444 8.01986 7.42803 8.98955 6.94002 10.1241C6.45201 11.2586 6.32433 12.507 6.57311 13.7114C6.8219 14.9158 7.43598 16.0221 8.3377 16.8904C9.23942 17.7588 10.3883 18.3501 11.639 18.5897C12.8897 18.8292 14.1861 18.7063 15.3643 18.2364C16.5425 17.7664 17.5495 16.9706 18.2579 15.9496C18.9664 14.9285 19.3446 13.7281 19.3446 12.5001C19.3446 10.8534 18.6653 9.27416 17.4561 8.10978C16.2469 6.94539 14.6069 6.29124 12.8969 6.29124Z" fill="#2E4049"/>
</svg>
