<svg width="27" height="27" viewBox="0 0 27 27" fill="none" xmlns="http://www.w3.org/2000/svg">
<path d="M13.3168 0.399902C6.08095 0.399902 0.213867 6.26437 0.213867 13.497C0.213867 18.8586 3.44281 23.466 8.05809 25.4949C8.02299 24.5828 8.05224 23.4836 8.28622 22.4896C8.53775 21.4254 9.97089 15.3505 9.97089 15.3505C9.97089 15.3505 9.54972 14.5144 9.54972 13.2807C9.54972 11.3395 10.6728 9.88946 12.0767 9.88946C13.27 9.88946 13.8433 10.784 13.8433 11.854C13.8433 13.0526 13.077 14.8418 12.6851 16.5023C12.3575 17.8939 13.3812 19.0223 14.7558 19.0223C17.236 19.0223 18.909 15.8358 18.909 12.0587C18.909 9.18783 16.9728 7.04201 13.4572 7.04201C9.48538 7.04201 7.00517 10.0064 7.00517 13.3158C7.00517 14.4559 7.34445 15.2628 7.87091 15.8826C8.11074 16.1691 8.14583 16.286 8.05809 16.6134C7.99375 16.8531 7.85336 17.432 7.78901 17.6659C7.70127 17.9991 7.43219 18.1161 7.13386 17.9933C5.30296 17.2449 4.44893 15.2452 4.44893 12.9883C4.44893 9.26968 7.59013 4.80848 13.814 4.80848C18.8154 4.80848 22.1087 8.42773 22.1087 12.3101C22.1087 17.4495 19.2482 21.2851 15.0366 21.2851C13.621 21.2851 12.2932 20.5192 11.8369 19.6538C11.8369 19.6538 11.0764 22.6708 10.9127 23.2555C10.6377 24.267 10.0937 25.2727 9.59652 26.062C10.8026 26.4177 12.0535 26.5988 13.311 26.6C20.5468 26.6 26.4139 20.7355 26.4139 13.5029C26.4139 6.27021 20.5527 0.399902 13.3168 0.399902Z" fill="#2E4049"/>
</svg>
