<svg width="29" height="23" viewBox="0 0 29 23" fill="none" xmlns="http://www.w3.org/2000/svg">
<path d="M28.2139 3.06615C27.1774 3.51654 26.0807 3.81327 24.9584 3.94695C26.1378 3.25635 27.0247 2.1592 27.4529 0.86128C26.3378 1.5133 25.1199 1.97078 23.8514 2.21414C23.3172 1.6543 22.6748 1.20894 21.9631 0.905116C21.2514 0.601293 20.4854 0.445357 19.7116 0.446787C16.5788 0.446787 14.0434 2.94526 14.0434 6.02517C14.0412 6.45358 14.0903 6.88071 14.1897 7.29744C11.9432 7.19212 9.74338 6.61904 7.73105 5.61486C5.71872 4.61067 3.93815 3.1975 2.50327 1.46575C1.99987 2.31438 1.73365 3.28263 1.73242 4.26933C1.73242 6.20363 2.7416 7.91342 4.26544 8.91511C3.36261 8.89368 2.47828 8.65473 1.68752 8.21853V8.28761C1.68752 10.9933 3.64485 13.2443 6.23543 13.7566C5.74828 13.8865 5.24627 13.9523 4.7421 13.9524C4.38436 13.953 4.02743 13.9183 3.67651 13.8487C4.39669 16.0651 6.49276 17.677 8.97569 17.7231C6.95813 19.278 4.4811 20.1184 1.93391 20.1122C1.48178 20.1115 1.03007 20.0846 0.581055 20.0316C3.17232 21.6862 6.18445 22.5615 9.25893 22.5531C19.6995 22.5531 25.4034 14.0502 25.4034 6.6757C25.4034 6.43391 25.3971 6.19212 25.3856 5.95609C26.4927 5.16859 27.4505 4.18995 28.2139 3.06615Z" fill="#2E4049"/>
</svg>
