<svg width="61" height="54" viewBox="0 0 61 54" fill="none" xmlns="http://www.w3.org/2000/svg">
<path fill-rule="evenodd" clip-rule="evenodd" d="M61 27C61 34.1608 57.7866 41.0284 52.0668 46.0919C46.3469 51.1554 38.5891 54 30.5 54C22.4109 54 14.6531 51.1554 8.93324 46.0919C3.21338 41.0284 0 34.1608 0 27C0 19.8392 3.21338 12.9716 8.93324 7.90812C14.6531 2.84464 22.4109 0 30.5 0C38.5891 0 46.3469 2.84464 52.0668 7.90812C57.7866 12.9716 61 19.8392 61 27ZM38.125 16.875C38.125 18.6652 37.3217 20.3821 35.8917 21.648C34.4617 22.9138 32.5223 23.625 30.5 23.625C28.4777 23.625 26.5383 22.9138 25.1083 21.648C23.6783 20.3821 22.875 18.6652 22.875 16.875C22.875 15.0848 23.6783 13.3679 25.1083 12.102C26.5383 10.8362 28.4777 10.125 30.5 10.125C32.5223 10.125 34.4617 10.8362 35.8917 12.102C37.3217 13.3679 38.125 15.0848 38.125 16.875ZM30.5 30.375C26.8499 30.3743 23.2764 31.3014 20.204 33.046C17.1317 34.7906 14.6897 37.2793 13.1684 40.2165C15.3136 42.4258 17.9732 44.1982 20.9647 45.4122C23.9563 46.6263 27.2091 47.2532 30.5 47.25C33.7909 47.2532 37.0437 46.6263 40.0353 45.4122C43.0268 44.1982 45.6864 42.4258 47.8316 40.2165C46.3103 37.2793 43.8683 34.7906 40.796 33.046C37.7236 31.3014 34.1501 30.3743 30.5 30.375Z" fill="#FF6D6D"/>
</svg>
